<?xml version="1.0" encoding="UTF-8" standalone="no"?>
<!-- Created with Inkscape (http://www.inkscape.org/) -->

<svg
   width="144.79613mm"
   height="30.023989mm"
   viewBox="0 0 144.79613 30.023989"
   version="1.1"
   id="svg1"
   xml:space="preserve"
   xmlns="http://www.w3.org/2000/svg"
   xmlns:svg="http://www.w3.org/2000/svg"><defs
     id="defs1" /><g
     id="layer1"
     transform="translate(-19.449659,-11.388141)"><g
       id="g8"
       transform="translate(-8.4615385,-35.25641)"><g
         id="g1"
         style="fill:#ffffff"><path
           style="fill:#ffffff;fill-opacity:1;stroke-width:0.298904"
           d="m 37.196187,76.595547 c -1.695149,-0.221661 -3.298819,-1.365562 -4.005507,-2.857135 -0.244336,-0.515709 -0.295865,-0.5712 -0.737209,-0.793905 -1.736679,-0.876349 -2.901032,-2.318346 -3.370269,-4.173926 -0.14398,-0.569365 -0.162709,-0.820219 -0.12969,-1.737056 0.02123,-0.589373 0.07923,-1.172525 0.128896,-1.295893 0.08062,-0.200258 0.06016,-0.273143 -0.190873,-0.679848 -0.347046,-0.562259 -0.726525,-1.525274 -0.872635,-2.214508 -0.148322,-0.699673 -0.142496,-2.161671 0.01159,-2.907631 0.298157,-1.443468 0.99229,-2.677399 2.104726,-3.741477 l 0.538209,-0.514813 0.03367,-0.869176 c 0.08471,-2.186512 1.13501,-3.98291 2.999478,-5.130214 0.31122,-0.19151 0.699166,-0.394763 0.8621,-0.451674 0.162934,-0.05691 0.317394,-0.170109 0.343242,-0.251552 0.05534,-0.174361 0.682456,-0.958165 0.975346,-1.219041 0.921851,-0.821093 2.298458,-1.230955 3.509302,-1.044838 0.759085,0.116677 1.39067,0.382146 2.044985,0.859549 l 0.539676,0.393761 0.0023,26.706703 -0.45129,0.454902 c -0.809329,0.815808 -1.856054,1.309458 -3.10992,1.466681 -0.366305,0.04593 -0.684736,0.079 -0.707626,0.07348 -0.02289,-0.0055 -0.256222,-0.03809 -0.518517,-0.07239 z m 2.277185,-1.876359 c 0.496937,-0.24624 0.781977,-0.451713 1.081937,-0.779916 0.792819,-0.867471 0.71615,0.265633 0.71615,-10.583993 0,-5.243096 -0.02847,-9.532903 -0.06327,-9.532903 -0.0348,0 -0.09805,0.03478 -0.140551,0.07728 -0.172762,0.172761 -1.027441,0.397228 -1.512486,0.397228 -0.43101,0 -0.533796,-0.02853 -0.699385,-0.194118 -0.209496,-0.209496 -0.26215,-0.638182 -0.112689,-0.917454 0.113109,-0.211345 0.490461,-0.391045 0.821155,-0.391045 0.740923,0 1.528757,-0.538811 1.702468,-1.164343 0.140649,-0.506462 0.102273,-1.75312 -0.06532,-2.122098 -0.314801,-0.693068 -1.249702,-1.21964 -2.276972,-1.282477 -1.173546,-0.07178 -2.175385,0.522091 -2.730528,1.61862 -0.249176,0.492175 -0.291323,0.533534 -0.677458,0.664785 -1.923498,0.653817 -3.260662,2.407859 -3.260662,4.277214 0,1.090558 0.438705,2.08354 1.304904,2.953567 0.819293,0.822914 1.243471,1.00441 2.478425,1.060458 0.946847,0.04297 0.981468,0.05087 1.166505,0.26618 0.320502,0.372936 0.217137,0.902786 -0.221103,1.133379 -0.197445,0.103892 -0.451677,0.136647 -1.051275,0.135447 -0.672542,-0.0013 -0.897328,-0.03787 -1.502616,-0.244142 -0.801619,-0.273179 -0.842079,-0.263573 -1.078445,0.256039 -0.295759,0.650176 -0.132362,1.543119 0.374095,2.044391 0.453319,0.448678 0.784217,0.558973 1.627171,0.542366 0.763787,-0.01505 0.764881,-0.01479 0.968792,0.227546 0.231447,0.275058 0.257288,0.530978 0.08689,0.860494 -0.159578,0.30859 -0.568009,0.43711 -1.385364,0.435928 -1.463628,-0.0021 -2.641144,-0.836027 -3.168477,-2.243899 -0.137316,-0.366608 -0.161462,-0.580107 -0.139576,-1.234146 0.02693,-0.804874 0.15213,-1.202261 0.590245,-1.873494 0.138498,-0.212191 0.137966,-0.213821 -0.21965,-0.672223 -0.197166,-0.252734 -0.460219,-0.634727 -0.584561,-0.848874 l -0.226076,-0.389359 -0.463133,0.503546 c -0.557509,0.606157 -1.119767,1.695 -1.285558,2.489554 -0.322225,1.544265 0.04965,3.308559 0.949818,4.506293 0.1955,0.260126 0.355455,0.510477 0.355455,0.556337 0,0.04586 -0.07609,0.295678 -0.169098,0.555152 -0.234728,0.65487 -0.290091,1.876267 -0.116403,2.568025 0.225482,0.898041 0.64267,1.632707 1.290005,2.271693 0.320309,0.316178 0.609558,0.574869 0.642776,0.574869 0.03322,0 0.104571,-0.258015 0.158562,-0.573367 0.236349,-1.38047 1.170296,-2.623418 2.420342,-3.221126 0.350652,-0.167664 0.842926,-0.346054 1.093941,-0.396423 0.640316,-0.128485 1.059806,-0.466047 1.391512,-1.119745 0.161144,-0.317568 0.342079,-0.55918 0.458461,-0.612207 0.484462,-0.220736 1.008408,0.01992 1.099404,0.504964 0.03926,0.209252 -0.0082,0.396881 -0.21282,0.840722 -0.214639,0.465666 -0.241729,0.578474 -0.14645,0.609851 0.239859,0.07899 0.630958,0.550323 0.630958,0.760404 0,0.318327 -0.20233,0.642548 -0.470232,0.753517 -0.252613,0.104635 -0.262048,0.10315 -0.9533,-0.150068 -0.528413,-0.193567 -0.967822,-0.204487 -1.609829,-0.04001 -1.227155,0.314392 -2.051712,1.252298 -2.219722,2.524858 -0.06164,0.466852 0.150066,1.388399 0.459002,1.998053 0.293516,0.579229 0.918036,1.219323 1.483933,1.520941 0.768628,0.409675 1.04812,0.47501 1.935363,0.452419 0.762604,-0.01943 0.831638,-0.03602 1.47474,-0.354692 z"
           id="path1" /><path
           style="fill:#ffffff;fill-opacity:1;stroke-width:0.298904"
           d="m 47.266574,76.57156 c 1.695149,-0.221661 3.298819,-1.365562 4.005507,-2.857135 0.244336,-0.515709 0.295865,-0.5712 0.737208,-0.793905 1.73668,-0.876348 2.901032,-2.318345 3.370269,-4.173925 0.14398,-0.569365 0.162709,-0.820219 0.12969,-1.737056 -0.02122,-0.589373 -0.07923,-1.172525 -0.128895,-1.295893 -0.08062,-0.200258 -0.06016,-0.273143 0.190873,-0.679848 0.347046,-0.562259 0.726525,-1.525274 0.872634,-2.214508 0.148322,-0.699673 0.142497,-2.161671 -0.01158,-2.907631 -0.298157,-1.443468 -0.992291,-2.677399 -2.104726,-3.741477 l -0.538209,-0.514813 -0.03367,-0.869176 c -0.08471,-2.186512 -1.135009,-3.98291 -2.999477,-5.130215 -0.31122,-0.19151 -0.699166,-0.394764 -0.8621,-0.451674 -0.162934,-0.05691 -0.317394,-0.170109 -0.343242,-0.251553 -0.05534,-0.17436 -0.682456,-0.958164 -0.975346,-1.21904 -0.921851,-0.821093 -2.298458,-1.230955 -3.509302,-1.044838 -0.759085,0.116677 -1.39067,0.382145 -2.044985,0.859549 l -0.539676,0.393761 -0.0023,26.706703 0.45129,0.454902 c 0.809329,0.815808 1.856054,1.309458 3.10992,1.466681 0.366305,0.04593 0.684736,0.079 0.707626,0.07348 0.02289,-0.0055 0.256222,-0.03809 0.518517,-0.07239 z m -2.277185,-1.876359 c -0.496937,-0.24624 -0.781977,-0.451713 -1.081937,-0.779916 -0.792819,-0.867471 -0.71615,0.265633 -0.71615,-10.583992 0,-5.243096 0.02847,-9.532903 0.06327,-9.532903 0.0348,0 0.09805,0.03478 0.140551,0.07728 0.172762,0.172761 1.027441,0.397228 1.512486,0.397228 0.43101,0 0.533796,-0.02853 0.699385,-0.194118 0.209496,-0.209496 0.26215,-0.638182 0.112689,-0.917454 -0.113109,-0.211345 -0.490461,-0.391045 -0.821155,-0.391045 -0.740923,0 -1.528757,-0.538811 -1.702468,-1.164343 -0.140649,-0.506462 -0.102273,-1.753121 0.06532,-2.122099 0.314801,-0.693069 1.249702,-1.21964 2.276972,-1.282478 1.173546,-0.07178 2.175385,0.522092 2.730528,1.618621 0.249176,0.492175 0.291323,0.533534 0.677458,0.664786 1.923498,0.653817 3.260662,2.407859 3.260662,4.277214 0,1.090558 -0.438705,2.08354 -1.304904,2.953567 -0.819293,0.822914 -1.243471,1.00441 -2.478425,1.060458 -0.946847,0.04297 -0.981468,0.05087 -1.166505,0.26618 -0.320502,0.372936 -0.217137,0.902786 0.221103,1.133379 0.197445,0.103892 0.451677,0.136647 1.051275,0.135447 0.672542,-0.0013 0.897328,-0.03787 1.502616,-0.244142 0.801619,-0.273179 0.842079,-0.263573 1.078445,0.256039 0.295759,0.650176 0.132362,1.543119 -0.374095,2.044391 -0.453319,0.448678 -0.784217,0.558973 -1.627171,0.542366 -0.763787,-0.01505 -0.764881,-0.01479 -0.968792,0.227546 -0.231447,0.275058 -0.257288,0.530978 -0.08689,0.860494 0.159578,0.30859 0.568009,0.43711 1.385364,0.435928 1.463628,-0.0021 2.641144,-0.836027 3.168477,-2.243899 0.137316,-0.366608 0.161462,-0.580107 0.139576,-1.234146 -0.02693,-0.804874 -0.15213,-1.202261 -0.590246,-1.873494 -0.138498,-0.212191 -0.137965,-0.213821 0.21965,-0.672223 0.197167,-0.252734 0.460219,-0.634727 0.584561,-0.848874 l 0.226076,-0.389359 0.463133,0.503546 c 0.55751,0.606157 1.119767,1.695 1.285558,2.489554 0.322225,1.544265 -0.04964,3.308559 -0.949817,4.506293 -0.195501,0.260126 -0.355455,0.510477 -0.355455,0.556337 0,0.04586 0.07609,0.295678 0.169098,0.555152 0.234727,0.65487 0.290091,1.876267 0.116403,2.568025 -0.225482,0.898041 -0.64267,1.632707 -1.290005,2.271693 -0.320309,0.316178 -0.609559,0.574869 -0.642776,0.574869 -0.03322,0 -0.104571,-0.258015 -0.158562,-0.573367 -0.236349,-1.38047 -1.170296,-2.623418 -2.420342,-3.221126 -0.350652,-0.167664 -0.842926,-0.346054 -1.093941,-0.396423 -0.640316,-0.128485 -1.059806,-0.466047 -1.391512,-1.119745 -0.161144,-0.317568 -0.342079,-0.55918 -0.458461,-0.612207 -0.484462,-0.220736 -1.008408,0.01992 -1.099404,0.504964 -0.03926,0.209252 0.0082,0.396881 0.21282,0.840722 0.214639,0.465666 0.241729,0.578474 0.14645,0.609851 -0.239859,0.07899 -0.630958,0.550323 -0.630958,0.760404 0,0.318327 0.20233,0.642548 0.470232,0.753517 0.252613,0.104635 0.262048,0.10315 0.9533,-0.150068 0.528413,-0.193567 0.967822,-0.204487 1.609829,-0.04001 1.227155,0.314392 2.051712,1.252298 2.219722,2.524858 0.06164,0.466852 -0.150066,1.388399 -0.459002,1.998052 -0.293516,0.579229 -0.918036,1.219323 -1.483933,1.520941 -0.768628,0.409675 -1.04812,0.47501 -1.935363,0.452419 -0.762604,-0.01943 -0.831638,-0.03602 -1.47474,-0.354692 z"
           id="path1-4" /></g><text
         xml:space="preserve"
         style="font-size:13.9932px;text-align:start;writing-mode:lr-tb;direction:ltr;text-anchor:start;fill:#ffffff;fill-opacity:1;stroke-width:1.1661"
         x="60.033997"
         y="61.807491"
         id="text5"><tspan
           id="tspan5"
           x="60.033997"
           y="61.807491"
           style="font-style:normal;font-variant:normal;font-weight:500;font-stretch:normal;font-family:unageo;-inkscape-font-specification:'unageo Medium';fill:#ffffff;fill-opacity:1;stroke-width:1.1661">Sebastián Castillo</tspan><tspan
           x="60.033997"
           y="79.298988"
           style="fill:#ffffff;fill-opacity:1;stroke-width:1.1661"
           id="tspan7" /></text><text
         xml:space="preserve"
         style="font-style:normal;font-variant:normal;font-weight:normal;font-stretch:normal;font-size:5.57997px;font-family:Unageo;-inkscape-font-specification:Unageo;text-align:start;writing-mode:lr-tb;direction:ltr;text-anchor:start;fill:#ffffff;fill-opacity:1;stroke-width:0.464997"
         x="69.904602"
         y="68.445877"
         id="text8"><tspan
           id="tspan8"
           x="69.904602"
           y="68.445877"
           style="font-style:normal;font-variant:normal;font-weight:normal;font-stretch:normal;font-family:Unageo;-inkscape-font-specification:Unageo;fill:#ffffff;fill-opacity:1;stroke-width:0.464997">Psicoterapia y Psicologia del Deporte</tspan></text></g></g></svg>
